<?xml version="1.0" encoding="UTF-8"?>
<?xml-stylesheet href="https://cdnjs.cloudflare.com/ajax/libs/font-awesome/6.7.2/css/all.min.css" type="text/css"?>
<svg aria-roledescription="er" role="graphics-document document" viewBox="0 0 696.6500244140625 374" style="max-width: 100%;" xmlns="http://www.w3.org/2000/svg" width="100%" id="graph-div" height="100%" xmlns:xlink="http://www.w3.org/1999/xlink"><style>#graph-div{font-family:"trebuchet ms",verdana,arial,sans-serif;font-size:16px;fill:#333;}#graph-div .error-icon{fill:#552222;}#graph-div .error-text{fill:#552222;stroke:#552222;}#graph-div .edge-thickness-normal{stroke-width:1px;}#graph-div .edge-thickness-thick{stroke-width:3.5px;}#graph-div .edge-pattern-solid{stroke-dasharray:0;}#graph-div .edge-thickness-invisible{stroke-width:0;fill:none;}#graph-div .edge-pattern-dashed{stroke-dasharray:3;}#graph-div .edge-pattern-dotted{stroke-dasharray:2;}#graph-div .marker{fill:#333333;stroke:#333333;}#graph-div .marker.cross{stroke:#333333;}#graph-div svg{font-family:"trebuchet ms",verdana,arial,sans-serif;font-size:16px;}#graph-div p{margin:0;}#graph-div .entityBox{fill:#ECECFF;stroke:#9370DB;}#graph-div .attributeBoxOdd{fill:#ffffff;stroke:#9370DB;}#graph-div .attributeBoxEven{fill:#f2f2f2;stroke:#9370DB;}#graph-div .relationshipLabelBox{fill:hsl(80, 100%, 96.2745098039%);opacity:0.7;background-color:hsl(80, 100%, 96.2745098039%);}#graph-div .relationshipLabelBox rect{opacity:0.5;}#graph-div .relationshipLine{stroke:#333333;}#graph-div .entityTitleText{text-anchor:middle;font-size:18px;fill:#333;}#graph-div #MD_PARENT_START{fill:#f5f5f5!important;stroke:#333333!important;stroke-width:1;}#graph-div #MD_PARENT_END{fill:#f5f5f5!important;stroke:#333333!important;stroke-width:1;}#graph-div :root{--mermaid-font-family:"trebuchet ms",verdana,arial,sans-serif;}</style><g></g><defs><marker orient="auto" markerHeight="240" markerWidth="190" refY="7" refX="0" id="MD_PARENT_START"><path d="M 18,7 L9,13 L1,7 L9,1 Z"></path></marker></defs><defs><marker orient="auto" markerHeight="28" markerWidth="20" refY="7" refX="19" id="MD_PARENT_END"><path d="M 18,7 L9,13 L1,7 L9,1 Z"></path></marker></defs><defs><marker orient="auto" markerHeight="18" markerWidth="18" refY="9" refX="0" id="ONLY_ONE_START"><path d="M9,0 L9,18 M15,0 L15,18" fill="none" stroke="gray"></path></marker></defs><defs><marker orient="auto" markerHeight="18" markerWidth="18" refY="9" refX="18" id="ONLY_ONE_END"><path d="M3,0 L3,18 M9,0 L9,18" fill="none" stroke="gray"></path></marker></defs><defs><marker orient="auto" markerHeight="18" markerWidth="30" refY="9" refX="0" id="ZERO_OR_ONE_START"><circle r="6" cy="9" cx="21" fill="white" stroke="gray"></circle><path d="M9,0 L9,18" fill="none" stroke="gray"></path></marker></defs><defs><marker orient="auto" markerHeight="18" markerWidth="30" refY="9" refX="30" id="ZERO_OR_ONE_END"><circle r="6" cy="9" cx="9" fill="white" stroke="gray"></circle><path d="M21,0 L21,18" fill="none" stroke="gray"></path></marker></defs><defs><marker orient="auto" markerHeight="36" markerWidth="45" refY="18" refX="18" id="ONE_OR_MORE_START"><path d="M0,18 Q 18,0 36,18 Q 18,36 0,18 M42,9 L42,27" fill="none" stroke="gray"></path></marker></defs><defs><marker orient="auto" markerHeight="36" markerWidth="45" refY="18" refX="27" id="ONE_OR_MORE_END"><path d="M3,9 L3,27 M9,18 Q27,0 45,18 Q27,36 9,18" fill="none" stroke="gray"></path></marker></defs><defs><marker orient="auto" markerHeight="36" markerWidth="57" refY="18" refX="18" id="ZERO_OR_MORE_START"><circle r="6" cy="18" cx="48" fill="white" stroke="gray"></circle><path d="M0,18 Q18,0 36,18 Q18,36 0,18" fill="none" stroke="gray"></path></marker></defs><defs><marker orient="auto" markerHeight="36" markerWidth="57" refY="18" refX="39" id="ZERO_OR_MORE_END"><circle r="6" cy="18" cx="9" fill="white" stroke="gray"></circle><path d="M21,18 Q39,0 57,18 Q39,36 21,18" fill="none" stroke="gray"></path></marker></defs><path marker-start="url(#ONLY_ONE_START)" marker-end="url(#ZERO_OR_MORE_END)" style="stroke: gray; fill: none;" d="M266.675,93.278L236.79,105.065C206.906,116.852,147.136,140.426,117.251,162.463C87.367,184.5,87.367,205,87.367,215.25L87.367,225.5" class="er relationshipLine"></path><path marker-start="url(#ONLY_ONE_START)" marker-end="url(#ZERO_OR_MORE_END)" style="stroke: gray; fill: none;" d="M333.3,114L333.3,122.333C333.3,130.667,333.3,147.333,333.3,164C333.3,180.667,333.3,197.333,333.3,205.667L333.3,214" class="er relationshipLine"></path><path marker-start="url(#ONLY_ONE_START)" marker-end="url(#ZERO_OR_MORE_END)" style="stroke: gray; fill: none;" d="M399.925,91.765L432.314,103.804C464.703,115.843,529.481,139.922,561.869,162.211C594.258,184.5,594.258,205,594.258,215.25L594.258,225.5" class="er relationshipLine"></path><g transform="translate(266.6750030517578,20 )" id="entity-PRODUCTS-362c442a-463b-592a-aa0d-86bc5b21c2f4"><rect height="94" width="133.24999713897705" y="0" x="0" class="er entityBox"></rect><text transform="translate(66.62499856948853,12.5)" style="dominant-baseline: middle; text-anchor: middle; font-size: 12px;" y="0" x="0" id="text-entity-PRODUCTS-362c442a-463b-592a-aa0d-86bc5b21c2f4" class="er entityLabel">PRODUCTS</text><rect height="23" width="32.78333282470703" y="25" x="0" class="er attributeBoxOdd"></rect><text transform="translate(5,36.5)" style="dominant-baseline: middle; font-size: 10.2px;" y="0" x="0" id="text-entity-PRODUCTS-362c442a-463b-592a-aa0d-86bc5b21c2f4-attr-1-type" class="er entityLabel">int</text><rect height="23" width="74.91666412353516" y="25" x="32.78333282470703" class="er attributeBoxOdd"></rect><text transform="translate(37.78333282470703,36.5)" style="dominant-baseline: middle; font-size: 10.2px;" y="0" x="0" id="text-entity-PRODUCTS-362c442a-463b-592a-aa0d-86bc5b21c2f4-attr-1-name" class="er entityLabel">ProductID</text><rect height="23" width="25.550000190734863" y="25" x="107.69999694824219" class="er attributeBoxOdd"></rect><text transform="translate(112.69999694824219,36.5)" style="dominant-baseline: middle; font-size: 10.2px;" y="0" x="0" id="text-entity-PRODUCTS-362c442a-463b-592a-aa0d-86bc5b21c2f4-attr-1-key" class="er entityLabel">PK</text><rect height="23" width="32.78333282470703" y="48" x="0" class="er attributeBoxEven"></rect><text transform="translate(5,59.5)" style="dominant-baseline: middle; font-size: 10.2px;" y="0" x="0" id="text-entity-PRODUCTS-362c442a-463b-592a-aa0d-86bc5b21c2f4-attr-2-type" class="er entityLabel">text</text><rect height="23" width="74.91666412353516" y="48" x="32.78333282470703" class="er attributeBoxEven"></rect><text transform="translate(37.78333282470703,59.5)" style="dominant-baseline: middle; font-size: 10.2px;" y="0" x="0" id="text-entity-PRODUCTS-362c442a-463b-592a-aa0d-86bc5b21c2f4-attr-2-name" class="er entityLabel">ProductName</text><rect height="23" width="25.550000190734863" y="48" x="107.69999694824219" class="er attributeBoxEven"></rect><text transform="translate(112.69999694824219,59.5)" style="dominant-baseline: middle; font-size: 10.2px;" y="0" x="0" id="text-entity-PRODUCTS-362c442a-463b-592a-aa0d-86bc5b21c2f4-attr-2-key" class="er entityLabel"></text><rect height="23" width="32.78333282470703" y="71" x="0" class="er attributeBoxOdd"></rect><text transform="translate(5,82.5)" style="dominant-baseline: middle; font-size: 10.2px;" y="0" x="0" id="text-entity-PRODUCTS-362c442a-463b-592a-aa0d-86bc5b21c2f4-attr-3-type" class="er entityLabel">text</text><rect height="23" width="74.91666412353516" y="71" x="32.78333282470703" class="er attributeBoxOdd"></rect><text transform="translate(37.78333282470703,82.5)" style="dominant-baseline: middle; font-size: 10.2px;" y="0" x="0" id="text-entity-PRODUCTS-362c442a-463b-592a-aa0d-86bc5b21c2f4-attr-3-name" class="er entityLabel">Description</text><rect height="23" width="25.550000190734863" y="71" x="107.69999694824219" class="er attributeBoxOdd"></rect><text transform="translate(112.69999694824219,82.5)" style="dominant-baseline: middle; font-size: 10.2px;" y="0" x="0" id="text-entity-PRODUCTS-362c442a-463b-592a-aa0d-86bc5b21c2f4-attr-3-key" class="er entityLabel"></text></g><g transform="translate(20,225.5 )" id="entity-PRICING-25073530-eb7f-504e-8c3c-32d768c6934c"><rect height="117" width="134.73333072662354" y="0" x="0" class="er entityBox"></rect><text transform="translate(67.36666536331177,12.5)" style="dominant-baseline: middle; text-anchor: middle; font-size: 12px;" y="0" x="0" id="text-entity-PRICING-25073530-eb7f-504e-8c3c-32d768c6934c" class="er entityLabel">PRICING</text><rect height="23" width="51.099998474121094" y="25" x="0" class="er attributeBoxOdd"></rect><text transform="translate(5,36.5)" style="dominant-baseline: middle; font-size: 10.2px;" y="0" x="0" id="text-entity-PRICING-25073530-eb7f-504e-8c3c-32d768c6934c-attr-1-type" class="er entityLabel">int</text><rect height="23" width="58.08333206176758" y="25" x="51.099998474121094" class="er attributeBoxOdd"></rect><text transform="translate(56.099998474121094,36.5)" style="dominant-baseline: middle; font-size: 10.2px;" y="0" x="0" id="text-entity-PRICING-25073530-eb7f-504e-8c3c-32d768c6934c-attr-1-name" class="er entityLabel">PriceID</text><rect height="23" width="25.550000190734863" y="25" x="109.18333053588867" class="er attributeBoxOdd"></rect><text transform="translate(114.18333053588867,36.5)" style="dominant-baseline: middle; font-size: 10.2px;" y="0" x="0" id="text-entity-PRICING-25073530-eb7f-504e-8c3c-32d768c6934c-attr-1-key" class="er entityLabel">PK</text><rect height="23" width="51.099998474121094" y="48" x="0" class="er attributeBoxEven"></rect><text transform="translate(5,59.5)" style="dominant-baseline: middle; font-size: 10.2px;" y="0" x="0" id="text-entity-PRICING-25073530-eb7f-504e-8c3c-32d768c6934c-attr-2-type" class="er entityLabel">int</text><rect height="23" width="58.08333206176758" y="48" x="51.099998474121094" class="er attributeBoxEven"></rect><text transform="translate(56.099998474121094,59.5)" style="dominant-baseline: middle; font-size: 10.2px;" y="0" x="0" id="text-entity-PRICING-25073530-eb7f-504e-8c3c-32d768c6934c-attr-2-name" class="er entityLabel">ProductID</text><rect height="23" width="25.550000190734863" y="48" x="109.18333053588867" class="er attributeBoxEven"></rect><text transform="translate(114.18333053588867,59.5)" style="dominant-baseline: middle; font-size: 10.2px;" y="0" x="0" id="text-entity-PRICING-25073530-eb7f-504e-8c3c-32d768c6934c-attr-2-key" class="er entityLabel">FK</text><rect height="23" width="51.099998474121094" y="71" x="0" class="er attributeBoxOdd"></rect><text transform="translate(5,82.5)" style="dominant-baseline: middle; font-size: 10.2px;" y="0" x="0" id="text-entity-PRICING-25073530-eb7f-504e-8c3c-32d768c6934c-attr-3-type" class="er entityLabel">text</text><rect height="23" width="58.08333206176758" y="71" x="51.099998474121094" class="er attributeBoxOdd"></rect><text transform="translate(56.099998474121094,82.5)" style="dominant-baseline: middle; font-size: 10.2px;" y="0" x="0" id="text-entity-PRICING-25073530-eb7f-504e-8c3c-32d768c6934c-attr-3-name" class="er entityLabel">PriceType</text><rect height="23" width="25.550000190734863" y="71" x="109.18333053588867" class="er attributeBoxOdd"></rect><text transform="translate(114.18333053588867,82.5)" style="dominant-baseline: middle; font-size: 10.2px;" y="0" x="0" id="text-entity-PRICING-25073530-eb7f-504e-8c3c-32d768c6934c-attr-3-key" class="er entityLabel"></text><rect height="23" width="51.099998474121094" y="94" x="0" class="er attributeBoxEven"></rect><text transform="translate(5,105.5)" style="dominant-baseline: middle; font-size: 10.2px;" y="0" x="0" id="text-entity-PRICING-25073530-eb7f-504e-8c3c-32d768c6934c-attr-4-type" class="er entityLabel">numeric</text><rect height="23" width="58.08333206176758" y="94" x="51.099998474121094" class="er attributeBoxEven"></rect><text transform="translate(56.099998474121094,105.5)" style="dominant-baseline: middle; font-size: 10.2px;" y="0" x="0" id="text-entity-PRICING-25073530-eb7f-504e-8c3c-32d768c6934c-attr-4-name" class="er entityLabel">Amount</text><rect height="23" width="25.550000190734863" y="94" x="109.18333053588867" class="er attributeBoxEven"></rect><text transform="translate(114.18333053588867,105.5)" style="dominant-baseline: middle; font-size: 10.2px;" y="0" x="0" id="text-entity-PRICING-25073530-eb7f-504e-8c3c-32d768c6934c-attr-4-key" class="er entityLabel"></text></g><g transform="translate(254.73333740234375,214 )" id="entity-SHIPPINGPOLICIES-e5e50df8-4cc2-58cc-b8cd-546143b7177e"><rect height="140" width="157.13332843780518" y="0" x="0" class="er entityBox"></rect><text transform="translate(78.56666421890259,12.5)" style="dominant-baseline: middle; text-anchor: middle; font-size: 12px;" y="0" x="0" id="text-entity-SHIPPINGPOLICIES-e5e50df8-4cc2-58cc-b8cd-546143b7177e" class="er entityLabel">SHIPPING_POLICIES</text><rect height="23" width="51.099998474121094" y="25" x="0" class="er attributeBoxOdd"></rect><text transform="translate(5,36.5)" style="dominant-baseline: middle; font-size: 10.2px;" y="0" x="0" id="text-entity-SHIPPINGPOLICIES-e5e50df8-4cc2-58cc-b8cd-546143b7177e-attr-1-type" class="er entityLabel">int</text><rect height="23" width="80.48332977294922" y="25" x="51.099998474121094" class="er attributeBoxOdd"></rect><text transform="translate(56.099998474121094,36.5)" style="dominant-baseline: middle; font-size: 10.2px;" y="0" x="0" id="text-entity-SHIPPINGPOLICIES-e5e50df8-4cc2-58cc-b8cd-546143b7177e-attr-1-name" class="er entityLabel">ShippingID</text><rect height="23" width="25.550000190734863" y="25" x="131.5833282470703" class="er attributeBoxOdd"></rect><text transform="translate(136.5833282470703,36.5)" style="dominant-baseline: middle; font-size: 10.2px;" y="0" x="0" id="text-entity-SHIPPINGPOLICIES-e5e50df8-4cc2-58cc-b8cd-546143b7177e-attr-1-key" class="er entityLabel">PK</text><rect height="23" width="51.099998474121094" y="48" x="0" class="er attributeBoxEven"></rect><text transform="translate(5,59.5)" style="dominant-baseline: middle; font-size: 10.2px;" y="0" x="0" id="text-entity-SHIPPINGPOLICIES-e5e50df8-4cc2-58cc-b8cd-546143b7177e-attr-2-type" class="er entityLabel">int</text><rect height="23" width="80.48332977294922" y="48" x="51.099998474121094" class="er attributeBoxEven"></rect><text transform="translate(56.099998474121094,59.5)" style="dominant-baseline: middle; font-size: 10.2px;" y="0" x="0" id="text-entity-SHIPPINGPOLICIES-e5e50df8-4cc2-58cc-b8cd-546143b7177e-attr-2-name" class="er entityLabel">ProductID</text><rect height="23" width="25.550000190734863" y="48" x="131.5833282470703" class="er attributeBoxEven"></rect><text transform="translate(136.5833282470703,59.5)" style="dominant-baseline: middle; font-size: 10.2px;" y="0" x="0" id="text-entity-SHIPPINGPOLICIES-e5e50df8-4cc2-58cc-b8cd-546143b7177e-attr-2-key" class="er entityLabel">FK</text><rect height="23" width="51.099998474121094" y="71" x="0" class="er attributeBoxOdd"></rect><text transform="translate(5,82.5)" style="dominant-baseline: middle; font-size: 10.2px;" y="0" x="0" id="text-entity-SHIPPINGPOLICIES-e5e50df8-4cc2-58cc-b8cd-546143b7177e-attr-3-type" class="er entityLabel">text</text><rect height="23" width="80.48332977294922" y="71" x="51.099998474121094" class="er attributeBoxOdd"></rect><text transform="translate(56.099998474121094,82.5)" style="dominant-baseline: middle; font-size: 10.2px;" y="0" x="0" id="text-entity-SHIPPINGPOLICIES-e5e50df8-4cc2-58cc-b8cd-546143b7177e-attr-3-name" class="er entityLabel">ShippingType</text><rect height="23" width="25.550000190734863" y="71" x="131.5833282470703" class="er attributeBoxOdd"></rect><text transform="translate(136.5833282470703,82.5)" style="dominant-baseline: middle; font-size: 10.2px;" y="0" x="0" id="text-entity-SHIPPINGPOLICIES-e5e50df8-4cc2-58cc-b8cd-546143b7177e-attr-3-key" class="er entityLabel"></text><rect height="23" width="51.099998474121094" y="94" x="0" class="er attributeBoxEven"></rect><text transform="translate(5,105.5)" style="dominant-baseline: middle; font-size: 10.2px;" y="0" x="0" id="text-entity-SHIPPINGPOLICIES-e5e50df8-4cc2-58cc-b8cd-546143b7177e-attr-4-type" class="er entityLabel">numeric</text><rect height="23" width="80.48332977294922" y="94" x="51.099998474121094" class="er attributeBoxEven"></rect><text transform="translate(56.099998474121094,105.5)" style="dominant-baseline: middle; font-size: 10.2px;" y="0" x="0" id="text-entity-SHIPPINGPOLICIES-e5e50df8-4cc2-58cc-b8cd-546143b7177e-attr-4-name" class="er entityLabel">Cost</text><rect height="23" width="25.550000190734863" y="94" x="131.5833282470703" class="er attributeBoxEven"></rect><text transform="translate(136.5833282470703,105.5)" style="dominant-baseline: middle; font-size: 10.2px;" y="0" x="0" id="text-entity-SHIPPINGPOLICIES-e5e50df8-4cc2-58cc-b8cd-546143b7177e-attr-4-key" class="er entityLabel"></text><rect height="23" width="51.099998474121094" y="117" x="0" class="er attributeBoxOdd"></rect><text transform="translate(5,128.5)" style="dominant-baseline: middle; font-size: 10.2px;" y="0" x="0" id="text-entity-SHIPPINGPOLICIES-e5e50df8-4cc2-58cc-b8cd-546143b7177e-attr-5-type" class="er entityLabel">text</text><rect height="23" width="80.48332977294922" y="117" x="51.099998474121094" class="er attributeBoxOdd"></rect><text transform="translate(56.099998474121094,128.5)" style="dominant-baseline: middle; font-size: 10.2px;" y="0" x="0" id="text-entity-SHIPPINGPOLICIES-e5e50df8-4cc2-58cc-b8cd-546143b7177e-attr-5-name" class="er entityLabel">EstimatedDays</text><rect height="23" width="25.550000190734863" y="117" x="131.5833282470703" class="er attributeBoxOdd"></rect><text transform="translate(136.5833282470703,128.5)" style="dominant-baseline: middle; font-size: 10.2px;" y="0" x="0" id="text-entity-SHIPPINGPOLICIES-e5e50df8-4cc2-58cc-b8cd-546143b7177e-attr-5-key" class="er entityLabel"></text></g><g transform="translate(511.8666687011719,225.5 )" id="entity-DISCOUNTS-9db227bc-abce-5406-bd1b-93e8df51d42b"><rect height="117" width="164.78332996368408" y="0" x="0" class="er entityBox"></rect><text transform="translate(82.39166498184204,12.5)" style="dominant-baseline: middle; text-anchor: middle; font-size: 12px;" y="0" x="0" id="text-entity-DISCOUNTS-9db227bc-abce-5406-bd1b-93e8df51d42b" class="er entityLabel">DISCOUNTS</text><rect height="23" width="51.099998474121094" y="25" x="0" class="er attributeBoxOdd"></rect><text transform="translate(5,36.5)" style="dominant-baseline: middle; font-size: 10.2px;" y="0" x="0" id="text-entity-DISCOUNTS-9db227bc-abce-5406-bd1b-93e8df51d42b-attr-1-type" class="er entityLabel">int</text><rect height="23" width="88.13333129882812" y="25" x="51.099998474121094" class="er attributeBoxOdd"></rect><text transform="translate(56.099998474121094,36.5)" style="dominant-baseline: middle; font-size: 10.2px;" y="0" x="0" id="text-entity-DISCOUNTS-9db227bc-abce-5406-bd1b-93e8df51d42b-attr-1-name" class="er entityLabel">DiscountID</text><rect height="23" width="25.550000190734863" y="25" x="139.23332977294922" class="er attributeBoxOdd"></rect><text transform="translate(144.23332977294922,36.5)" style="dominant-baseline: middle; font-size: 10.2px;" y="0" x="0" id="text-entity-DISCOUNTS-9db227bc-abce-5406-bd1b-93e8df51d42b-attr-1-key" class="er entityLabel">PK</text><rect height="23" width="51.099998474121094" y="48" x="0" class="er attributeBoxEven"></rect><text transform="translate(5,59.5)" style="dominant-baseline: middle; font-size: 10.2px;" y="0" x="0" id="text-entity-DISCOUNTS-9db227bc-abce-5406-bd1b-93e8df51d42b-attr-2-type" class="er entityLabel">int</text><rect height="23" width="88.13333129882812" y="48" x="51.099998474121094" class="er attributeBoxEven"></rect><text transform="translate(56.099998474121094,59.5)" style="dominant-baseline: middle; font-size: 10.2px;" y="0" x="0" id="text-entity-DISCOUNTS-9db227bc-abce-5406-bd1b-93e8df51d42b-attr-2-name" class="er entityLabel">ProductID</text><rect height="23" width="25.550000190734863" y="48" x="139.23332977294922" class="er attributeBoxEven"></rect><text transform="translate(144.23332977294922,59.5)" style="dominant-baseline: middle; font-size: 10.2px;" y="0" x="0" id="text-entity-DISCOUNTS-9db227bc-abce-5406-bd1b-93e8df51d42b-attr-2-key" class="er entityLabel">FK</text><rect height="23" width="51.099998474121094" y="71" x="0" class="er attributeBoxOdd"></rect><text transform="translate(5,82.5)" style="dominant-baseline: middle; font-size: 10.2px;" y="0" x="0" id="text-entity-DISCOUNTS-9db227bc-abce-5406-bd1b-93e8df51d42b-attr-3-type" class="er entityLabel">text</text><rect height="23" width="88.13333129882812" y="71" x="51.099998474121094" class="er attributeBoxOdd"></rect><text transform="translate(56.099998474121094,82.5)" style="dominant-baseline: middle; font-size: 10.2px;" y="0" x="0" id="text-entity-DISCOUNTS-9db227bc-abce-5406-bd1b-93e8df51d42b-attr-3-name" class="er entityLabel">DiscountType</text><rect height="23" width="25.550000190734863" y="71" x="139.23332977294922" class="er attributeBoxOdd"></rect><text transform="translate(144.23332977294922,82.5)" style="dominant-baseline: middle; font-size: 10.2px;" y="0" x="0" id="text-entity-DISCOUNTS-9db227bc-abce-5406-bd1b-93e8df51d42b-attr-3-key" class="er entityLabel"></text><rect height="23" width="51.099998474121094" y="94" x="0" class="er attributeBoxEven"></rect><text transform="translate(5,105.5)" style="dominant-baseline: middle; font-size: 10.2px;" y="0" x="0" id="text-entity-DISCOUNTS-9db227bc-abce-5406-bd1b-93e8df51d42b-attr-4-type" class="er entityLabel">numeric</text><rect height="23" width="88.13333129882812" y="94" x="51.099998474121094" class="er attributeBoxEven"></rect><text transform="translate(56.099998474121094,105.5)" style="dominant-baseline: middle; font-size: 10.2px;" y="0" x="0" id="text-entity-DISCOUNTS-9db227bc-abce-5406-bd1b-93e8df51d42b-attr-4-name" class="er entityLabel">DiscountAmount</text><rect height="23" width="25.550000190734863" y="94" x="139.23332977294922" class="er attributeBoxEven"></rect><text transform="translate(144.23332977294922,105.5)" style="dominant-baseline: middle; font-size: 10.2px;" y="0" x="0" id="text-entity-DISCOUNTS-9db227bc-abce-5406-bd1b-93e8df51d42b-attr-4-key" class="er entityLabel"></text></g><rect height="15" width="21.700000762939453" y="132.00119018554688" x="145.8554744720459" class="er relationshipLabelBox"></rect><text style="text-anchor: middle; dominant-baseline: middle; font-size: 12px;" y="139.50119018554688" x="156.70547485351562" id="rel17" class="er relationshipLabel">has</text><rect height="15" width="21.700000762939453" y="156.5" x="322.449987411499" class="er relationshipLabelBox"></rect><text style="text-anchor: middle; dominant-baseline: middle; font-size: 12px;" y="164" x="333.29998779296875" id="rel18" class="er relationshipLabel">has</text><rect height="15" width="21.700000762939453" y="130.55845642089844" x="506.4042720794678" class="er relationshipLabelBox"></rect><text style="text-anchor: middle; dominant-baseline: middle; font-size: 12px;" y="138.05845642089844" x="517.2542724609375" id="rel19" class="er relationshipLabel">has</text></svg>